<?xml version="1.0" encoding="utf-8"?>
<!-- Generator: Adobe Illustrator 26.5.0, SVG Export Plug-In . SVG Version: 6.00 Build 0)  -->
<svg version="1.1" id="Layer_1" xmlns="http://www.w3.org/2000/svg" xmlns:xlink="http://www.w3.org/1999/xlink" x="0px" y="0px"
	 viewBox="0 0 623.62 623.62" style="enable-background:new 0 0 623.62 623.62;" xml:space="preserve">
<style type="text/css">
	.st0{fill:#166D5D;}
	.st1{fill:#14191E;}
</style>
<g>
	<g>
		<g>
			<g>
				<g>
					<g>
						<path class="st0" d="M364.62,156.97c-10.87,0-21.35,2.58-30.73,7.45c0,0-0.01,0.01-0.02,0.01c-6.03,3.12-11.6,7.2-16.54,12.13
							c-4.05,4.05-7.52,8.54-10.36,13.34c-0.03-0.05-0.07-0.11-0.1-0.16c-5.04,8.67-8.8,20.07-9.09,34.31l18.39,0.08
							c0-23.55,16.92-43.51,39.23-47.83v47.59h-96.87V176.3c14.93,2.89,27.44,12.66,34.08,25.86c1.39-6.03,4.04-13.04,8.96-20.07
							c-1.54-1.92-3.2-3.77-4.97-5.54c-12.63-12.63-29.43-19.59-47.29-19.59h-9.23v66.92c0,6.33,0.87,12.53,2.57,18.45h128.64
							c1.69-5.92,2.57-12.12,2.57-18.45v-66.92H364.62z"/>
						
							<rect x="292.82" y="141.49" transform="matrix(0.7071 -0.7071 0.7071 0.7071 -20.1359 262.6306)" class="st0" width="28.27" height="28.27"/>
					</g>
				</g>
			</g>
			<rect x="366.02" y="213.08" class="st0" width="7.82" height="29.26"/>
			<rect x="240.07" y="213.08" class="st0" width="7.82" height="29.26"/>
			<g>
				<path class="st0" d="M306.96,273.2c-17.77,0-33.53-8.71-43.26-22.08h-23.62c3.59,7.63,8.51,14.67,14.66,20.82
					c11.51,11.52,26.17,18.77,42.04,20.94c3.35,0.46,6.75,0.69,10.19,0.69c3.44,0,6.84-0.23,10.19-0.69
					c15.86-2.17,30.52-9.42,42.03-20.94c6.15-6.15,11.08-13.18,14.67-20.82h-23.63C340.48,264.49,324.72,273.2,306.96,273.2z"/>
				<rect x="297.12" y="284.76" class="st0" width="19.67" height="41.38"/>
			</g>
		</g>
	</g>
	<g>
		<path class="st1" d="M140.83,445.24H77.38v42H54.88v-110.1h96.29v22.49h-73.8v23.12h63.45V445.24z"/>
		<path class="st1" d="M186.25,377.13v87.61h59.77v22.49h-82.26v-110.1H186.25z"/>
		<path class="st1" d="M289.78,377.13h32.8c5.15,0,9.98,1,14.5,2.99c4.52,1.99,8.48,4.67,11.9,8.02c3.41,3.36,6.09,7.29,8.04,11.8
			c1.94,4.51,2.91,9.33,2.91,14.47v35.55c0,5.14-0.97,9.96-2.91,14.47c-1.94,4.51-4.62,8.47-8.04,11.88
			c-3.41,3.41-7.38,6.08-11.9,8.02c-4.52,1.94-9.35,2.91-14.5,2.91h-32.8c-5.15,0-9.98-0.97-14.5-2.91
			c-4.52-1.94-8.48-4.61-11.9-8.02c-3.41-3.41-6.09-7.37-8.03-11.88c-1.94-4.51-2.91-9.33-2.91-14.47v-35.55
			c0-5.14,0.97-9.96,2.91-14.47c1.94-4.51,4.62-8.44,8.03-11.8c3.41-3.35,7.38-6.03,11.9-8.02
			C279.81,378.13,284.64,377.13,289.78,377.13z M293.65,399.62c-2.52,0-4.93,0.5-7.24,1.49c-2.31,0.99-4.3,2.33-5.98,4
			c-1.68,1.67-3.02,3.66-4.01,5.96c-1,2.3-1.49,4.71-1.49,7.22v27.46c0,2.61,0.5,5.08,1.49,7.38c1,2.3,2.33,4.32,4.01,6.04
			c1.68,1.73,3.67,3.09,5.98,4.08c2.31,0.99,4.72,1.49,7.24,1.49h24.75c2.62,0,5.08-0.5,7.39-1.49c2.31-0.99,4.33-2.35,6.06-4.08
			c1.73-1.73,3.09-3.74,4.09-6.04c1-2.3,1.49-4.76,1.49-7.38v-27.46c0-2.51-0.5-4.92-1.49-7.22c-1-2.3-2.36-4.29-4.09-5.96
			c-1.73-1.67-3.75-3.01-6.06-4c-2.31-0.99-4.77-1.49-7.39-1.49H293.65z"/>
		<path class="st1" d="M435.58,487.23l-18.25-44.36c-1.47,0-2.99,0.03-4.56,0.08c-1.57,0.05-3.25,0.08-5.03,0.08h-12.9v44.2h-22.49
			v-110.1h88.71v5.03c0,8.08-0.03,15.28-0.08,21.63c-0.05,6.35-0.68,11.85-1.89,16.52c-1.21,4.67-3.22,8.57-6.06,11.72
			c-2.83,3.15-7.08,5.61-12.74,7.39l19.66,47.82H435.58z M394.84,420.54h12.9c7.24,0,12.95-0.1,17.14-0.31
			c4.19-0.21,7.34-1,9.44-2.36c2.1-1.36,3.38-3.43,3.85-6.21c0.47-2.78,0.71-6.79,0.71-12.03h-44.04V420.54z"/>
		<path class="st1" d="M539.87,456.09h-38.22l-5.03,31.14H473.8l17.62-110.1h58.67l18.39,110.1H544.9L539.87,456.09z M505.11,433.6
			h31.14l-5.35-33.98h-20.29L505.11,433.6z"/>
	</g>
</g>
</svg>
